<?xml version="1.0" encoding="UTF-8"?>
<svg id="Layer_2" data-name="Layer 2" xmlns="http://www.w3.org/2000/svg" viewBox="0 0 219.96 219.96">
  <defs>
    <style>
      .cls-1 {
        fill: #29a56c;
        stroke-width: 0px;
      }
    </style>
  </defs>
  <g id="Layer_1-2" data-name="Layer 1">
    <path class="cls-1" d="m219.96,103.11v13.32c-.47,3.75-.74,7.53-1.43,11.23-7.11,38.23-28.25,65.76-63.33,82.52-4.67,2.23-9.65,3.8-14.69,5.75v-81.61h23.55c1.2-9.25,2.36-18.28,3.57-27.61h-27.19c0-6.69-.12-13.13.03-19.56.17-7.11,3.82-10.79,10.96-11.1,4.86-.21,9.74-.11,14.6-.14.75,0,1.51,0,2.23,0v-25.09c-8.63-.13-17.14-.66-25.61-.22-4.37.23-8.94,1.59-12.93,3.47-11.56,5.47-16.64,15.52-17.52,27.77-.53,7.41-.22,14.88-.29,22.33,0,.83,0,1.66,0,2.73h-23.5v27.44h23.5v2.54c0,26.92,0,53.84,0,80.76,0,.78-.14,1.55-.21,2.33h-8.59c-2.05-.27-4.09-.55-6.14-.8-21.46-2.56-40.81-10.45-57.1-24.58C6.72,165.82-6,129.49,2.62,86.45,12.38,37.75,56.74,1.24,106.39.04c21.42-.52,41.52,4.29,59.82,15.49,28.47,17.42,45.91,42.63,52.06,75.5.75,3.99,1.13,8.05,1.69,12.08Z"/>
  </g>
</svg>