<?xml version="1.0" encoding="UTF-8"?>
<svg id="Layer_2" data-name="Layer 2" xmlns="http://www.w3.org/2000/svg" viewBox="0 0 219.96 219.96">
  <defs>
    <style>
      .cls-1 {
        fill: #29a56c;
        stroke-width: 0px;
      }
    </style>
  </defs>
  <g id="Layer_1-2" data-name="Layer 1">
    <g>
      <path class="cls-1" d="m103.1,0c4.58,0,9.16,0,13.75,0,.55.12,1.1.31,1.65.35,17.12,1.28,33.16,6.2,47.76,15.19,28.39,17.48,45.88,42.62,52,75.49.74,3.99,1.13,8.05,1.69,12.08v13.75c-.18,1.41-.37,2.82-.53,4.23-2.35,21.75-10.24,41.27-24.12,58.19-17.26,21.04-39.35,34.1-66.18,38.99-4.06.74-8.19,1.14-12.28,1.7h-13.75c-2.68-.33-5.37-.62-8.05-1-20.29-2.89-38.51-10.62-54.35-23.64C19.67,178.03,6.58,155.97,1.71,129.14.97,125.08.56,120.95,0,116.85c0-4.58,0-9.16,0-13.75.17-1.41.36-2.82.52-4.23,2.54-23.3,11.35-43.9,26.89-61.46C44.5,18.11,65.79,6.1,91.24,1.66c3.93-.69,7.91-1.11,11.86-1.66Zm7.08,46.5c0,.25,0,.51-.01.76-9.09,0-18.18-.17-27.27.05-7.32.17-14.33,1.89-20.52,6.05-10.33,6.94-14.77,17.2-15.01,29.15-.37,18.31-.23,36.64-.03,54.96.08,7.16,1.93,14.03,6.01,20.09,6.95,10.33,17.21,14.77,29.15,15.01,18.31.37,36.65.32,54.96,0,10.04-.17,19.1-3.48,26.1-11.17,6.29-6.92,8.86-15.33,9.06-24.42.34-15.03.37-30.06.38-45.09,0-4.43-.33-8.87-.77-13.28-1.7-17.07-13.89-29.45-30.98-30.87-10.33-.86-20.73-.87-31.09-1.25Z"/>
      <path class="cls-1" d="m109.98,161.95c-9.51-.27-19.04-.3-28.53-.87-13.5-.81-22.13-9.07-22.5-22.6-.52-19.16-.36-38.34.02-57.51.16-8.3,3.95-15.18,11.65-19.25,4.33-2.29,9.1-3.13,13.9-3.13,18.03-.02,36.07-.21,54.08.36,13.36.42,22.04,9.05,22.39,22.42.51,19.09.5,38.21,0,57.29-.35,13.21-9.1,21.5-22.26,22.44-4.78.34-9.58.46-14.37.56-4.79.09-9.59.02-14.38.02,0,.09,0,.18,0,.27Zm32.4-52.02c-.04-17.91-14.44-32.31-32.35-32.35-17.96-.05-32.5,14.49-32.47,32.45.04,17.89,14.45,32.31,32.35,32.36,17.95.05,32.5-14.5,32.46-32.45Zm8.86-33.65c0-4.15-3.29-7.51-7.43-7.56-4.26-.05-7.65,3.28-7.66,7.53,0,4.17,3.27,7.51,7.42,7.55,4.26.05,7.67-3.29,7.67-7.53Z"/>
      <path class="cls-1" d="m109.95,88.93c11.58-.01,21.03,9.39,21.07,20.96.04,11.67-9.45,21.16-21.12,21.13-11.56-.04-20.98-9.5-20.97-21.07.01-11.57,9.45-21.01,21.02-21.02Z"/>
    </g>
  </g>
</svg>