<svg width="78" height="84" viewBox="0 0 78 84" fill="none" xmlns="http://www.w3.org/2000/svg">
<path d="M54.0069 82.2721C47.9571 82.223 38.8788 81.9847 29.9478 81.1435C23.7998 80.5616 17.4486 79.6433 12.6255 76.9093C11.2656 76.1382 9.77938 75.9489 8.46146 75.7876C7.90064 75.7175 7.37488 75.6544 6.92622 75.5493C3.50523 74.7431 1.11474 71.7848 1.10072 68.3568L1.05165 45.3983C1.04464 42.2227 3.30895 39.5658 6.44252 39.0751C6.4986 39.0681 6.54767 39.0541 6.60375 39.04C6.98931 38.9139 16.2008 35.9135 23.1409 30.4876C26.4076 27.9358 29.2047 24.0031 30.6278 19.9722C32.0439 15.9554 32.0368 11.574 32.0298 8.05484C32.0298 5.78352 32.0228 2.9584 32.6397 2.5448C34.1399 1.55636 35.7943 1.05162 37.5539 1.05162C42.9658 1.05162 48.4899 5.99383 48.7072 11.0272C48.8614 14.5183 47.6907 18.6403 46.562 22.6221C45.2301 27.34 44.0734 31.4129 45.1179 34.1819C45.2722 34.5956 45.6647 34.8619 46.0994 34.8619C46.1134 34.8619 51.2098 34.6867 51.2098 34.6867H51.2589C56.9792 34.6867 61.634 39.3415 61.641 45.0548L61.6761 74.645C61.6761 76.685 60.8909 78.5987 59.4468 80.0358C58.0097 81.4729 56.0959 82.2721 54.056 82.2721H54.0069Z" fill="url(#paint0_radial_1393_5382)"/>
<path d="M37.5538 2.10307C42.3628 2.10307 47.4592 6.63167 47.6555 11.0691C47.8027 14.392 46.6601 18.4299 45.5525 22.3346C44.1644 27.2277 42.9727 31.4549 44.1364 34.5464C44.4448 35.3666 45.23 35.9064 46.1063 35.9064H46.1834L51.2307 35.7311H51.2728C56.4113 35.7311 60.5964 39.9092 60.6034 45.0547L60.6385 74.6449C60.6385 76.3974 59.9585 78.0519 58.7177 79.2927C57.4769 80.5335 55.8295 81.2205 54.0699 81.2205H54.0138C47.985 81.1714 38.9348 80.9331 30.0458 80.0988C24.017 79.531 17.792 78.6337 13.1442 75.9979C11.6019 75.1216 9.9335 74.9183 8.59455 74.75C8.06177 74.687 7.56405 74.6239 7.17147 74.5257C4.22718 73.8317 2.16617 71.294 2.15916 68.3567L2.10308 45.3982C2.09607 42.7484 3.98883 40.5261 6.60365 40.1195C6.7088 40.1055 6.82096 40.0775 6.91911 40.0424C7.31168 39.9162 16.6914 36.8528 23.7787 31.3147C27.1927 28.6438 30.123 24.5358 31.6091 20.3226C33.0883 16.1375 33.0813 11.658 33.0743 8.05475C33.0743 6.34425 33.0672 4.03088 33.3617 3.32986C34.6516 2.50966 36.0606 2.10307 37.5538 2.10307ZM37.5538 0C35.6961 0 33.8173 0.504736 32.0578 1.66843C29.7865 3.16862 32.2471 12.1978 29.6322 19.6146C28.0619 24.0661 25.0686 27.6413 22.4888 29.6533C15.6188 35.0231 6.28118 38.0375 6.28118 38.0375C2.65689 38.6053 -0.00699642 41.7319 1.38035e-05 45.4052L0.0560962 68.3637C0.0701167 72.3175 2.83916 75.6614 6.68777 76.5727C8.24404 76.9372 10.3681 76.8391 12.1067 77.8275C16.7545 80.4634 22.7131 81.5149 29.8496 82.1879C38.6824 83.0221 47.6555 83.2675 53.9998 83.3235H54.0699C58.8579 83.3235 62.7485 79.4399 62.7415 74.6449L62.7065 45.0547C62.6995 38.7385 57.575 33.6351 51.2728 33.6351H51.1887L46.1133 33.8103C44.3607 29.1555 50.1021 18.6823 49.7656 10.978C49.5202 5.50303 43.6807 0 37.5538 0Z" fill="#339966"/>
<path d="M40.4065 40.7925C41.7244 44.2976 41.7385 49.7656 40.4065 53.1445C38.4787 58.0236 33.7608 62.2929 28.3139 63.043C26.9819 63.2252 27.7741 64.452 29.099 64.2698C34.9946 63.4566 42.9723 61.0661 45.0473 55.7734C50.7396 41.2271 44.0799 33.607 41.1075 35.8783C39.6775 36.986 39.6634 38.8086 40.4065 40.7925Z" fill="#339966"/>
<path d="M54.5398 45.9941C48.6793 45.9941 41.634 44.9075 41.3326 39.7129C41.2485 38.2267 41.6971 36.9789 42.7066 35.9064C45.3635 33.0882 51.89 31.539 61.0874 31.539C64.4243 31.539 66.8568 31.7563 66.8848 31.7563C66.9129 31.7563 66.9479 31.7633 66.976 31.7633H67.0391C67.1372 31.7563 67.2283 31.7563 67.3265 31.7563C70.3058 31.7563 72.7945 34.4412 72.9978 37.8692C73.2081 41.4164 70.8737 44.4448 67.7962 44.6201C67.7471 44.6201 67.691 44.6271 67.642 44.6411C67.5789 44.6481 61.0874 45.9941 54.5398 45.9941Z" fill="url(#paint1_radial_1393_5382)"/>
<path d="M61.0937 32.5904C64.3745 32.5904 66.772 32.8007 66.793 32.8007C66.8561 32.8077 66.9192 32.8078 66.9823 32.8078C67.0243 32.8078 67.0664 32.8077 67.1014 32.8007C67.1786 32.7937 67.2557 32.7937 67.3258 32.7937C69.7443 32.7937 71.7773 35.044 71.9455 37.9112C72.0296 39.3974 71.609 40.8064 70.7608 41.886C69.9686 42.8955 68.8891 43.4843 67.7324 43.5544C67.6272 43.5614 67.5221 43.5755 67.4239 43.5965C67.3608 43.6105 60.9605 44.9354 54.5391 44.9354C50.8097 44.9354 47.8514 44.5008 45.7553 43.6456C42.8741 42.4678 42.4465 40.7994 42.3834 39.6497C42.3133 38.451 42.6638 37.4906 43.477 36.6213C45.8955 34.0626 52.3169 32.5904 61.0937 32.5904ZM61.0937 30.4874C53.088 30.4874 39.8106 31.7001 40.2803 39.7759C40.6238 45.6084 47.6621 47.0455 54.5391 47.0455C61.2759 47.0455 67.8585 45.6645 67.8585 45.6645C71.5179 45.4472 74.2939 41.9281 74.0486 37.799C73.8172 33.8032 70.8449 30.6977 67.3328 30.6977C67.2136 30.6977 67.1014 30.6977 66.9823 30.7047C66.9823 30.7047 64.5217 30.4874 61.0937 30.4874Z" fill="#339966"/>
<path d="M58.9348 59.3346C51.2866 59.3346 42.1733 58.0517 42.1733 51.9248C42.1733 45.7978 51.2866 44.515 58.9348 44.515C65.4193 44.515 71.3289 45.4613 71.3849 45.4684C71.441 45.4754 71.4971 45.4824 71.5532 45.4824C74.6447 45.4824 76.7968 48.7491 76.7968 51.6794C76.7968 54.7709 74.5045 58.3602 71.5532 58.3602C71.4971 58.3602 71.441 58.3672 71.3849 58.3742C71.3219 58.3882 65.4122 59.3346 58.9348 59.3346Z" fill="url(#paint2_radial_1393_5382)"/>
<path d="M58.9347 45.5735C65.328 45.5735 71.1605 46.5059 71.2166 46.5129C71.3288 46.5339 71.4409 46.5409 71.5531 46.5409C73.9506 46.5409 75.7452 49.2609 75.7452 51.6864C75.7452 54.2171 73.8104 57.3156 71.5531 57.3156C71.4409 57.3156 71.3288 57.3226 71.2166 57.3437C71.1605 57.3507 65.321 58.283 58.9347 58.283C54.1467 58.283 50.3402 57.7783 47.6132 56.7758C43.6804 55.3317 43.2248 53.3128 43.2248 51.9248C43.2248 50.5297 43.6804 48.5178 47.6132 47.0737C50.3331 46.0782 54.1467 45.5735 58.9347 45.5735ZM58.9347 43.4704C50.5715 43.4704 41.1217 45.0057 41.1217 51.9318C41.1217 58.8579 50.5645 60.3931 58.9347 60.3931C65.5874 60.3931 71.5531 59.4257 71.5531 59.4257C75.1704 59.4257 77.8483 55.2827 77.8483 51.6934C77.8483 48.1042 75.1704 44.4448 71.5531 44.4448C71.5531 44.4378 65.5804 43.4704 58.9347 43.4704Z" fill="#339966"/>
<path d="M64.76 82.6366C61.8087 82.6366 46.8559 82.4052 42.3273 77.8696C41.5352 77.0775 41.1566 76.2222 41.1566 75.2548C41.1706 71.5744 47.4728 69.4644 58.4438 69.4644C62.3555 69.4644 65.384 69.7448 65.419 69.7448C65.4471 69.7448 65.4821 69.7518 65.5101 69.7518C67.1505 69.7588 68.6998 70.4248 69.8565 71.6375C71.0272 72.8573 71.6651 74.4837 71.6651 76.2082C71.6511 79.7484 68.8821 82.6225 65.4891 82.6225C65.44 82.6366 65.1947 82.6366 64.76 82.6366Z" fill="url(#paint3_radial_1393_5382)"/>
<path d="M58.4513 70.5229C62.2999 70.5229 65.2933 70.7963 65.3214 70.8033C65.3844 70.8103 65.4475 70.8103 65.5106 70.8103C66.8636 70.8173 68.1395 71.3711 69.0999 72.3736C70.0813 73.3971 70.6211 74.7641 70.6141 76.2152C70.6071 79.1735 68.3077 81.585 65.4686 81.585H65.4616H65.4195C65.4055 81.585 65.1671 81.592 64.7535 81.592C52.03 81.592 45.1179 79.1875 43.0639 77.1335C42.2858 76.3554 42.2016 75.6964 42.2016 75.2688C42.2227 72.3385 48.4407 70.5229 58.4513 70.5229ZM58.4513 68.4198C50.9364 68.4198 40.1266 69.4293 40.1126 75.2548C40.0845 83.2885 60.6525 83.6881 64.7605 83.6881C65.2162 83.6881 65.4686 83.6811 65.4686 83.6811H65.4896C69.4714 83.6811 72.7031 80.3442 72.7171 76.2152C72.7312 72.0791 69.5065 68.7142 65.5176 68.7002C65.5176 68.7072 62.4542 68.4198 58.4513 68.4198Z" fill="#339966"/>
<path d="M62.1385 71.5114C55.8363 71.5114 41.1849 70.7964 41.1849 64.1717C41.1849 58.6056 51.7493 57.7784 58.0515 57.7784C63.6247 57.7784 68.4267 58.3953 68.4757 58.4023C68.5178 58.4093 68.5669 58.4093 68.6089 58.4093C71.5322 58.4093 74.9392 59.8534 74.9392 63.9263C74.9392 67.782 71.9248 71.2871 68.6089 71.2871H68.5248C68.4968 71.2941 65.7978 71.5114 62.1385 71.5114Z" fill="url(#paint4_radial_1393_5382)"/>
<path d="M58.0513 56.7338V58.8369C63.5403 58.8369 68.2933 59.4468 68.3353 59.4538C68.4264 59.4678 68.5176 59.4678 68.6087 59.4678C71.1604 59.4678 73.8874 60.6385 73.8874 63.9333C73.8874 67.179 71.3217 70.2425 68.6087 70.2425C68.5526 70.2425 68.4965 70.2425 68.4335 70.2495C68.4054 70.2495 65.7485 70.4668 62.1313 70.4668C58.3107 70.4668 52.8497 70.2215 48.5244 69.0718C44.3533 67.9572 42.2362 66.3098 42.2362 64.1857C42.2362 63.5337 42.2362 61.5498 46.6807 60.1548C49.4498 59.2855 53.2703 58.8439 58.0443 58.8439L58.0513 56.7338ZM58.0513 56.7338C49.9475 56.7338 40.1332 58.0097 40.1332 64.1787C40.1332 71.4483 53.733 72.5699 62.1383 72.5699C65.8958 72.5699 68.6087 72.3456 68.6087 72.3456C72.5625 72.3456 75.9905 68.2586 75.9905 63.9333C75.9905 59.608 72.5625 57.3647 68.6087 57.3647C68.6087 57.3647 63.7506 56.7338 58.0513 56.7338Z" fill="#339966"/>
<path d="M13.5369 77.526L10.179 64.2767L8.77698 76.1941L13.5369 77.526Z" fill="#339966"/>
<defs>
<radialGradient id="paint0_radial_1393_5382" cx="0" cy="0" r="1" gradientUnits="userSpaceOnUse" gradientTransform="translate(30.3467 18.9915) rotate(90.125) scale(61.0165 48.0383)">
<stop offset="0.6" stop-color="#FFCA28"/>
<stop offset="1" stop-color="#FFB300"/>
</radialGradient>
<radialGradient id="paint1_radial_1393_5382" cx="0" cy="0" r="1" gradientTransform="matrix(-19.7867 1.13165 -0.533043 -9.68314 66.2275 38.1547)" gradientUnits="userSpaceOnUse">
<stop offset="0.5993" stop-color="#FFCA28"/>
<stop offset="1" stop-color="#FFB300"/>
</radialGradient>
<radialGradient id="paint2_radial_1393_5382" cx="0" cy="0" r="1" gradientTransform="matrix(-22.3053 -0.0247807 0.0382977 -8.94473 69.3571 51.7402)" gradientUnits="userSpaceOnUse">
<stop offset="0.5993" stop-color="#FFCA28"/>
<stop offset="1" stop-color="#FFB300"/>
</radialGradient>
<radialGradient id="paint3_radial_1393_5382" cx="0" cy="0" r="1" gradientTransform="matrix(-18.7319 -0.0897181 0.0648071 -9.75225 65.0076 75.911)" gradientUnits="userSpaceOnUse">
<stop offset="0.5993" stop-color="#FFCA28"/>
<stop offset="1" stop-color="#FFB300"/>
</radialGradient>
<radialGradient id="paint4_radial_1393_5382" cx="0" cy="0" r="1" gradientTransform="matrix(-21.3418 -0.0245931 0.0366444 -8.87699 67.674 64.4779)" gradientUnits="userSpaceOnUse">
<stop offset="0.5993" stop-color="#FFCA28"/>
<stop offset="1" stop-color="#FFB300"/>
</radialGradient>
</defs>
</svg>
