<?xml version="1.0" encoding="UTF-8"?>
<svg id="Layer_2" data-name="Layer 2" xmlns="http://www.w3.org/2000/svg" viewBox="0 0 219.96 219.96">
  <defs>
    <style>
      .cls-1 {
        fill: #29a56c;
        stroke-width: 0px;
      }
    </style>
  </defs>
  <g id="Layer_1-2" data-name="Layer 1">
    <path class="cls-1" d="m109.98,0C49.24,0,0,49.24,0,109.98s49.24,109.98,109.98,109.98,109.98-49.24,109.98-109.98S170.72,0,109.98,0Zm52.74,99.06c0,1.63-.74,2.32-2.35,2.33-7.15.04-14.01-1.2-20.44-4.46-.62-.32-1.38-.37-2.01-.67-3.13-1.51-3.12-1.53-3.12,2.07,0,10.74.01,21.47,0,32.21-.01,8.85-2.3,17.02-7.75,24.1-6.39,8.3-14.65,13.57-25.17,15.05-10.74,1.51-20.64-.65-29.2-7.32-8.91-6.94-14.31-15.92-15.27-27.52-.58-7.03.41-13.7,3.32-19.92,3.85-8.23,9.91-14.37,18.29-18.44,6.77-3.29,13.73-3.94,20.99-3.69,2.15.07,3,.85,3.01,2.97.02,6.15.02,12.31,0,18.46,0,2.31-1.18,3.27-3.38,2.68-4.48-1.2-8.59-.06-12.16,2.5-6.21,4.45-7.58,11.52-5.37,17.02,2.66,6.61,9.26,10.68,16.23,9.56,6.66-1.08,12.25-6.92,12.36-14.37.19-13.17.05-26.34.05-39.5,0-13.03,0-26.05,0-39.08,0-2.94.24-3.18,3.19-3.18,6.08,0,12.17.02,18.25-.02,1.62,0,2.52.47,2.63,2.28.7,11.74,6.69,19.61,17.53,24.01,2.71,1.1,5.57,1.03,8.34,1.58,1.52.3,2.04,1.02,2.03,2.46-.02,6.3-.02,12.6,0,18.89Z"/>
  </g>
</svg>