<?xml version="1.0" encoding="UTF-8"?>
<svg id="Layer_2" data-name="Layer 2" xmlns="http://www.w3.org/2000/svg" viewBox="0 0 219.96 219.96">
  <defs>
    <style>
      .cls-1 {
        fill: #29a56c;
        stroke-width: 0px;
      }
    </style>
  </defs>
  <g id="Layer_1-2" data-name="Layer 1">
    <g>
      <path class="cls-1" d="m93.32,135.71c14.87-8.61,29.12-16.86,44.03-25.49-15.2-8.76-29.4-16.95-44.03-25.39v50.88Z"/>
      <path class="cls-1" d="m109.98,0C49.24,0,0,49.24,0,109.98s49.24,109.98,109.98,109.98,109.98-49.24,109.98-109.98S170.72,0,109.98,0Zm58.07,167.52c-38.74,3.26-77.51,3.25-116.25,0-16.27-1.37-22.77-7.71-24.81-23.92-2.81-22.26-2.8-44.54.01-66.81,2.04-16.14,8.55-22.63,24.91-23.76,19.42-1.34,38.89-2.06,58.23-3.04,19.45,1,38.75,1.72,58.02,3.05,16.29,1.13,22.77,7.65,24.81,23.86,2.81,22.26,2.8,44.54-.01,66.81-2.04,16.16-8.53,22.44-24.9,23.82Z"/>
    </g>
  </g>
</svg>